<svg width="186" height="26" viewBox="0 0 186 26" fill="none" xmlns="http://www.w3.org/2000/svg">
<g clip-path="url(#clip0_17133_9423)">
<path fill-rule="evenodd" clip-rule="evenodd" d="M58.6446 0.0664062V8.34781H59.9621C60.2187 6.81174 61.6815 4.92088 65.0094 4.92088C70.0954 4.92088 73.2736 8.95305 73.2736 14.058V14.5923C73.2736 19.7306 70.0911 23.7669 65.0094 23.7669C61.6815 23.7669 60.2529 21.876 59.9621 20.34H58.6446V23.266H55.7188V0.0664062H58.6446ZM64.4235 21.3042C68.008 21.3042 70.2751 18.6996 70.2751 14.5964V14.0621C70.2751 9.95901 68.008 7.42533 64.4235 7.42533C60.839 7.42533 58.6446 9.95901 58.6446 14.0621V14.5964C58.6446 18.6996 60.7662 21.3042 64.4235 21.3042Z" fill="white"/>
<path fill-rule="evenodd" clip-rule="evenodd" d="M43.4467 4.9209C46.7746 4.9209 48.2375 6.81176 48.4942 8.34783H49.8117V5.42179H52.7375V23.266H49.8117V20.34H48.4942C48.2033 21.876 46.7746 23.7669 43.4467 23.7669C38.3608 23.7669 35.1826 19.7347 35.1826 14.5923V14.058C35.1826 8.95307 38.365 4.9209 43.4467 4.9209ZM44.0327 21.3042C47.69 21.3042 49.8117 18.6996 49.8117 14.5964V14.0621C49.8117 9.95903 47.69 7.42535 44.0327 7.42535C40.3755 7.42535 38.1811 9.95903 38.1811 14.0621V14.5964C38.1811 18.6996 40.4482 21.3042 44.0327 21.3042Z" fill="white"/>
<path d="M88.1464 18.3738C88.1464 20.335 85.808 21.4077 83.4304 21.4083C80.9416 21.4078 78.3464 20.4432 77.5425 17.4805H74.6167C75.3139 21.2623 78.5691 23.7625 83.0305 23.7625C87.492 23.7625 91.0765 21.9385 91.0765 18.4781C91.0765 14.7298 87.9711 13.7322 85.0068 13.2313C84.3865 13.1269 82.5942 12.8055 82.0809 12.697C79.4118 12.1252 78.4964 11.4865 78.4964 10.0924C78.4964 8.2349 80.618 7.23729 82.483 7.23729C84.2368 7.23729 86.5039 7.70061 87.1626 10.8062H90.0884C89.3912 6.80736 86.2815 4.9165 82.4788 4.9165C78.676 4.9165 75.7117 7.48773 75.7117 10.2719C75.7117 13.056 78.0515 14.6964 81.6361 15.2682L84.2325 15.6982C86.7947 16.1239 88.1464 16.7668 88.1464 18.3738Z" fill="white"/>
<path d="M96.1538 5.42176C97.0692 5.42176 97.3259 5.17132 97.3259 4.27807V0.0664062H100.252V5.42176H109.324V7.92205H100.252V20.4861H109.324V23.2702H99.9223C98.4979 23.2702 97.3259 22.1265 97.3259 20.7365V7.92205H91.7651V5.42176H96.1538Z" fill="white"/>
<path d="M116.93 7.91809V20.4487H111.373V23.2662H128.197V20.4487H119.856V14.4839C119.856 9.84652 123.842 6.99143 128.27 8.31045V5.0964C124.54 4.38263 121.721 7.13336 121.173 9.09518H119.856V5.4178H112.687V7.91809H116.93Z" fill="white"/>
<path fill-rule="evenodd" clip-rule="evenodd" d="M137.56 4.9209C140.888 4.9209 142.351 6.81176 142.608 8.34783H143.925V5.42179H146.851V23.266H143.925V20.34H142.608C142.317 21.876 140.888 23.7669 137.56 23.7669C132.474 23.7669 129.296 19.7347 129.296 14.5923V14.058C129.296 8.95307 132.479 4.9209 137.56 4.9209ZM138.146 21.3042C141.804 21.3042 143.925 18.6996 143.925 14.5964V14.0621C143.925 9.95903 141.804 7.42535 138.146 7.42535C134.489 7.42535 132.295 9.95903 132.295 14.0621V14.5964C132.295 18.6996 134.562 21.3042 138.146 21.3042Z" fill="white"/>
<path d="M166.968 11.4156C166.053 7.63382 163.161 4.92067 158.298 4.92067L158.302 4.9165C152.484 4.9165 149.413 8.91527 149.413 14.0536V14.5879C149.413 19.7304 152.484 23.7625 158.302 23.7625C163.058 23.7625 165.946 21.1913 166.934 17.4805H163.897C162.981 19.9432 161.01 21.3332 158.302 21.3332C154.717 21.3332 152.339 18.691 152.339 14.5879V14.0536C152.339 9.91705 154.717 7.34581 158.302 7.34581C161.078 7.34581 163.093 8.88188 163.97 11.4156H166.968Z" fill="white"/>
<path d="M172.602 5.42176C173.517 5.42176 173.774 5.17132 173.774 4.27807V0.0664062H176.699V5.42176H185.772V7.92205H176.699V20.4861H185.772V23.2702H176.37C174.946 23.2702 173.774 22.1265 173.774 20.7365V7.92205H168.213V5.42176H172.602Z" fill="white"/>
<path d="M23.5007 23.3495L18.0127 17.9941H9.34644L3.8584 23.3495L6.43346 25.8623L11.9215 20.5069C12.392 20.0478 13.0123 19.7973 13.6796 19.7973C14.3469 19.7973 14.9671 20.0478 15.4376 20.5069L20.9257 25.8623L23.5007 23.3495Z" fill="white"/>
<path d="M18.9282 16.4496L26.4223 18.4073L27.3634 14.972L19.8692 13.0143C19.2276 12.8474 18.6929 12.4467 18.3592 11.8832C18.0256 11.3238 17.9401 10.6685 18.1112 10.0424L20.1173 2.72934L16.5969 1.81104L14.5908 9.12405L18.9239 16.4455L18.9282 16.4496Z" fill="white"/>
<path d="M0.941051 18.4073L8.43524 16.4496L8.43952 16.4455L12.7726 9.12405L10.7665 1.81104L7.24609 2.72934L9.25224 10.0424C9.42334 10.6685 9.33779 11.3238 9.00415 11.8832C8.6705 12.4467 8.13582 12.8474 7.49419 13.0143L0 14.972L0.941051 18.4073Z" fill="white"/>
</g>
<defs>
<clipPath id="clip0_17133_9423">
<rect width="186" height="26" fill="white"/>
</clipPath>
</defs>
</svg>
