<svg width="645" height="364" viewBox="0 0 645 364" fill="none" xmlns="http://www.w3.org/2000/svg">
<path fill-rule="evenodd" clip-rule="evenodd" d="M185.419 15.2269C185.419 15.9269 185.419 16.6269 185.419 17.3269C185.419 22.9269 187.219 24.3269 192.819 23.5269C195.819 23.0269 198.919 22.8269 202.019 22.6269C212.619 21.7269 213.019 21.4269 212.719 10.6269C212.719 10.1269 212.719 9.7269 212.719 9.2269C212.419 6.1269 210.919 4.3269 207.619 4.6269C201.819 5.1269 196.019 5.4269 190.219 6.1269C187.219 6.5269 185.319 8.5269 185.419 11.8269C185.419 12.9269 185.419 14.1269 185.419 15.2269ZM269.319 153.027C264.819 165.827 260.419 178.627 255.819 191.927C265.419 191.127 274.519 190.327 284.019 189.527C279.319 177.027 274.719 164.927 270.219 152.927L269.319 153.027ZM60.6193 189.027C64.5193 188.727 68.2193 188.627 71.8193 188.227C76.9193 187.627 82.0193 187.127 87.0193 186.027C91.4193 185.127 94.6193 182.227 95.8193 177.827C98.0193 169.927 95.9193 163.927 87.3193 163.527C78.4193 163.127 69.5193 164.027 60.5193 164.327V189.027H60.6193ZM156.619 182.727C163.419 182.127 170.119 181.827 176.619 180.827C181.119 180.027 185.719 178.727 189.819 176.627C194.219 174.427 195.719 168.527 194.319 162.927C193.219 158.627 189.319 155.127 184.519 155.127C175.219 155.227 166.019 155.927 156.619 156.327V182.727ZM90.5193 202.127C83.7193 201.527 76.8193 202.227 70.0193 202.427C66.9193 202.527 63.7193 202.927 60.6193 203.227V230.627C68.3193 230.027 75.6193 229.727 82.9193 228.727C86.9193 228.127 91.0193 226.827 94.5193 225.027C100.119 222.027 101.219 216.527 100.519 210.727C99.8193 205.727 96.9193 202.627 90.5193 202.127ZM550.719 141.127C555.219 142.927 560.119 143.727 564.919 144.727C576.919 147.327 589.719 147.927 598.119 158.927V126.927C597.919 126.927 597.819 126.927 597.619 126.827C597.019 128.527 596.419 130.327 595.619 132.027C592.819 137.927 584.019 139.627 580.819 133.027C580.019 131.527 579.319 129.827 578.219 128.627C575.919 126.227 573.719 122.927 570.719 121.927C562.819 119.227 555.019 120.527 548.519 126.027C542.919 130.927 543.919 138.327 550.719 141.127ZM391.819 123.927C377.819 125.127 363.219 126.427 348.319 127.727C362.419 147.827 376.219 167.627 390.019 187.427C390.319 187.327 390.519 187.327 390.819 187.227V183.627C390.819 168.227 390.719 152.827 390.819 137.427C390.919 133.027 391.419 128.627 391.819 123.927ZM209.619 41.8269C209.319 38.7269 207.219 36.7269 204.119 37.0269C200.719 37.3269 197.319 37.6269 193.919 38.2269C189.919 38.9269 189.019 40.2269 189.019 44.2269C189.019 56.9269 189.019 69.5269 189.019 82.2269C189.019 95.1269 189.019 108.027 189.019 120.927C189.019 124.327 190.619 126.027 193.719 125.927C196.819 125.727 199.819 125.227 202.919 125.027C208.519 124.727 209.719 121.727 209.719 116.827C209.619 92.6269 209.719 68.5269 209.719 44.3269C209.619 43.4269 209.619 42.6269 209.619 41.8269ZM449.519 197.927C456.119 197.227 462.419 196.427 468.819 195.927C480.119 195.127 486.419 188.527 489.519 178.327C492.719 168.127 492.819 157.727 490.219 147.427C487.619 137.027 481.019 132.127 470.319 132.227C464.619 132.227 458.819 132.827 453.119 132.827C450.019 132.827 449.219 133.927 449.319 136.827C449.419 156.027 449.419 175.227 449.419 194.427C449.319 195.627 449.419 196.627 449.519 197.927ZM517.819 95.0269C528.719 96.9269 539.219 94.5269 549.519 91.5269C560.319 88.3269 558.119 87.4269 558.219 79.6269C558.319 73.6269 556.619 72.7269 550.619 73.9269C542.819 75.5269 534.919 76.9269 527.019 77.7269C521.319 78.3269 517.519 74.1269 517.519 68.4269C517.519 63.1269 517.519 57.8269 517.519 52.5269C517.519 47.8269 517.919 43.0269 517.419 38.4269C516.719 31.4269 522.419 25.0269 530.719 25.2269C538.019 25.4269 545.419 25.3269 552.719 25.4269C556.519 25.4269 558.119 23.8269 558.219 20.0269C558.219 18.0269 558.119 16.1269 558.219 14.1269C558.419 10.9269 557.019 9.2269 553.919 8.6269C543.119 6.3269 532.119 6.5269 521.519 9.0269C507.019 12.4269 497.119 24.4269 496.819 38.2269C496.519 49.0269 496.619 59.8269 496.819 70.6269C497.219 83.4269 505.419 92.8269 517.819 95.0269ZM94.4193 128.127C94.4193 133.127 96.2193 134.727 101.219 134.427C103.519 134.227 105.819 133.927 108.019 133.727C113.119 133.427 115.019 131.627 115.019 126.527C115.019 108.927 115.019 91.3269 115.019 73.7269C115.019 67.6269 119.319 62.5269 124.919 61.9269C129.119 61.5269 133.319 61.0269 137.519 60.6269C144.319 59.9269 148.819 63.9269 148.819 70.7269C148.819 73.5269 148.819 76.2269 148.819 79.0269C148.819 93.8269 148.819 108.727 148.819 123.527C148.819 128.327 151.119 130.127 155.819 129.527C157.819 129.227 159.919 129.127 162.019 128.927C167.619 128.427 169.819 126.427 169.619 121.027C169.319 112.127 169.519 103.327 169.519 94.4269C169.519 85.8269 169.519 77.1269 169.519 68.5269C169.519 56.1269 162.319 46.4269 150.119 44.1269C138.219 41.8269 126.219 42.9269 114.919 47.0269C103.319 51.2269 95.5193 59.7269 94.6193 72.7269C94.0193 82.4269 94.3193 92.2269 94.2193 102.027C94.3193 110.627 94.3193 119.327 94.4193 128.127ZM54.6193 119.127C54.6193 119.827 52.8193 121.027 51.7193 121.127C45.1193 121.827 38.4193 122.327 31.8193 122.727C25.8193 123.127 21.9193 120.527 21.0193 115.527C20.1193 110.227 23.3193 104.827 28.7193 103.327C31.5193 102.527 34.6193 102.527 37.5193 102.127C40.3193 101.827 43.2193 101.527 46.1193 101.227C48.8193 101.027 51.6193 100.927 54.8193 100.727C54.7193 107.027 54.8193 113.127 54.6193 119.127ZM75.1193 129.127C75.1193 112.227 75.1193 95.3269 75.1193 78.4269C75.1193 75.8269 75.1193 73.1269 74.5193 70.5269C71.8193 59.4269 61.7193 51.2269 50.2193 51.6269C41.8193 51.9269 33.3193 53.1269 25.0193 54.6269C17.4193 56.0269 16.8193 57.3269 16.8193 65.0269C16.8193 65.9269 16.8193 66.8269 16.8193 67.8269C17.0193 71.8269 18.6193 73.0269 22.5193 72.4269C29.3193 71.3269 36.1193 70.8269 42.8193 69.4269C50.3193 67.8269 56.6193 74.5269 54.1193 83.1269C48.3193 83.6269 42.3193 84.3269 36.4193 84.7269C26.8193 85.3269 18.0193 87.5269 10.3193 93.8269C-1.18067 103.327 -3.58067 120.827 5.71933 131.627C13.1193 140.227 23.1193 141.527 33.6193 140.527C44.9193 139.527 56.2193 138.227 67.5193 137.327C73.8193 136.627 75.1193 135.527 75.1193 129.127ZM624.119 69.2269C618.019 69.8269 612.119 70.3269 606.219 70.8269C603.719 71.0269 601.119 71.6269 598.719 71.3269C593.819 70.8269 590.519 67.0269 590.319 62.3269C590.119 57.8269 594.219 52.2269 598.819 51.6269C607.119 50.5269 615.419 49.9269 624.119 49.1269V69.2269ZM644.619 23.9269C644.519 11.8269 635.319 1.9269 623.319 0.426897C613.719 -0.873103 604.419 1.0269 595.119 3.0269C586.319 5.0269 586.319 5.3269 586.419 14.3269C586.419 15.0269 586.419 15.7269 586.419 16.4269C586.619 20.2269 588.619 21.4269 592.419 20.8269C599.919 19.6269 607.519 18.5269 615.119 17.8269C617.019 17.6269 619.319 18.8269 620.919 20.0269C624.619 22.7269 624.419 26.9269 624.019 31.4269C618.419 31.9269 613.019 32.3269 607.619 32.8269C600.319 33.5269 593.019 34.0269 586.419 37.6269C574.519 44.0269 568.519 55.0269 569.919 68.3269C571.219 80.4269 584.119 90.0269 598.219 88.9269C611.819 87.9269 625.419 86.5269 639.019 85.3269C643.119 84.9269 644.619 83.3269 644.619 79.1269C644.719 60.7269 644.719 42.3269 644.619 23.9269ZM228.519 117.327C228.519 117.527 228.619 117.827 228.619 118.027C228.819 121.027 230.619 122.327 233.419 122.127C236.519 121.927 239.619 121.527 242.719 121.327C247.519 120.927 248.919 119.427 248.919 114.627C248.919 97.2269 248.919 79.8269 248.919 62.5269C248.919 55.3269 253.319 50.2269 260.119 49.6269C263.819 49.3269 267.419 49.1269 271.119 48.9269C279.719 48.4269 282.919 51.4269 282.919 60.0269C282.919 76.6269 282.919 93.1269 282.919 109.727C282.919 110.827 282.819 112.027 283.019 113.127C283.419 115.927 284.719 117.527 287.819 117.327C290.819 117.027 293.719 116.827 296.719 116.627C301.419 116.327 303.419 114.327 303.419 109.527C303.419 92.2269 303.419 75.0269 303.419 57.7269C303.419 49.8269 308.019 45.1269 315.819 44.7269C318.919 44.6269 322.019 44.3269 325.119 43.9269C333.619 43.0269 337.619 46.5269 337.619 55.0269C337.619 69.5269 337.619 84.0269 337.619 98.5269C337.619 101.627 337.619 104.727 337.719 107.827C337.819 110.927 339.419 112.527 342.519 112.327C346.119 112.127 349.619 112.027 353.119 111.527C356.619 111.027 357.919 109.127 357.919 105.127C357.919 86.7269 357.819 68.3269 357.919 49.9269C358.019 38.2269 349.719 30.4269 340.519 27.4269C334.019 25.3269 327.419 26.2269 320.719 26.6269C310.719 27.2269 301.119 28.8269 293.719 35.4269C289.619 34.0269 286.219 32.0269 282.819 31.7269C276.319 31.2269 269.819 31.3269 263.319 31.9269C258.219 32.4269 253.019 33.2269 248.319 35.1269C236.719 39.7269 228.919 48.1269 228.619 61.1269C228.319 79.8269 228.619 98.6269 228.519 117.327ZM429.019 75.7269C432.419 75.8269 434.719 78.2269 434.719 81.6269C434.619 85.5269 431.619 88.3269 427.519 88.2269C424.319 88.1269 422.019 85.8269 422.019 82.5269C422.119 78.7269 425.219 75.6269 429.019 75.7269ZM450.919 73.6269C453.919 73.7269 456.619 76.4269 456.619 79.3269C456.719 82.8269 453.119 86.5269 449.619 86.4269C446.519 86.4269 443.619 83.5269 443.719 80.4269C443.719 77.0269 447.419 73.5269 450.919 73.6269ZM364.519 29.6269C367.119 29.3269 369.519 27.9269 371.219 27.2269C378.219 33.6269 385.219 40.0269 392.919 47.0269C387.919 48.7269 384.019 50.0269 380.219 51.3269C377.719 47.5269 375.119 46.4269 371.619 47.4269C368.819 48.2269 366.519 51.3269 366.319 54.3269C366.119 57.5269 367.519 59.6269 370.319 60.8269C373.719 62.2269 376.519 60.8269 380.519 55.6269C383.719 57.1269 387.019 58.7269 390.419 60.1269C392.319 60.8269 392.619 62.0269 392.719 63.8269C392.819 66.8269 393.019 69.8269 393.819 72.6269C399.819 95.6269 420.819 108.427 444.219 104.227C471.119 99.4269 492.419 71.6269 485.819 43.0269C480.719 20.6269 460.819 8.7269 440.419 10.3269C431.319 11.0269 422.819 14.0269 415.319 19.4269C413.819 20.5269 412.719 20.7269 411.119 19.4269C408.519 17.3269 405.719 15.6269 403.119 13.8269C404.819 8.2269 404.219 5.7269 401.119 3.6269C398.519 1.9269 394.919 2.2269 392.219 4.3269C389.719 6.3269 388.519 10.4269 389.719 13.3269C391.119 16.7269 393.619 17.7269 399.719 17.0269C400.419 21.5269 401.119 26.0269 401.919 31.0269C392.719 27.9269 384.219 25.1269 375.819 22.1269C375.019 21.8269 374.219 20.5269 373.919 19.5269C372.619 14.3269 369.219 12.0269 364.019 12.9269C359.519 13.7269 356.319 18.2269 356.819 23.1269C357.019 26.9269 360.419 30.1269 364.519 29.6269ZM593.819 191.827C582.419 206.027 555.119 209.127 540.419 202.627C531.619 198.727 524.819 188.827 525.119 180.327C525.219 176.327 528.119 172.727 531.919 171.827C536.319 170.727 539.319 172.027 541.619 176.227C543.119 178.927 544.419 181.727 545.819 184.427C547.719 188.027 550.919 190.127 554.719 190.827C562.019 192.127 569.119 191.427 575.419 187.027C580.019 183.827 582.619 179.427 581.719 173.827C580.819 168.327 576.619 165.927 571.719 164.827C563.819 163.127 555.819 161.827 547.919 159.927C541.019 158.327 534.619 155.427 530.419 149.227C524.919 141.027 525.919 127.727 533.019 120.227C536.719 116.327 541.319 113.327 545.119 110.327C524.519 112.127 503.019 114.027 481.419 116.027C481.619 116.227 481.719 116.327 481.719 116.427C482.319 116.627 482.819 116.727 483.419 116.827C496.619 119.627 504.719 127.927 508.719 140.427C513.119 154.127 512.919 168.027 508.619 181.627C503.719 197.227 493.419 207.527 476.919 210.427C469.219 211.727 461.519 212.427 453.719 213.127C448.619 213.627 443.419 213.827 438.219 213.827C433.619 213.827 431.519 212.027 430.619 207.527C430.219 205.727 430.019 203.927 430.019 202.127C430.019 179.727 430.019 157.227 429.919 134.827C429.919 129.427 429.819 124.127 435.019 120.127C425.319 121.027 416.219 121.827 407.619 122.627C408.119 126.427 408.919 129.927 408.919 133.427C409.019 156.227 409.019 179.027 408.919 201.827C408.919 204.427 408.819 207.127 408.519 209.727C408.019 214.227 405.719 217.327 401.319 218.827C395.319 220.827 390.119 218.827 385.719 212.527C377.719 201.227 369.919 189.727 362.019 178.427C357.219 171.527 352.519 164.627 347.119 156.927V177.927C347.119 189.927 347.119 201.827 347.119 213.827C347.119 220.027 342.919 224.327 337.319 224.327C332.019 224.327 329.319 221.127 329.119 214.327C329.119 213.327 329.119 212.227 329.119 211.227C329.119 188.527 329.019 165.927 329.219 143.227C329.219 138.727 330.219 134.227 330.719 129.527C314.419 130.927 297.319 132.427 280.319 133.927C281.919 136.927 283.519 139.627 284.719 142.527C290.619 156.527 296.519 170.527 302.319 184.527C306.419 194.527 310.519 204.527 314.319 214.727C316.119 219.427 313.019 224.527 308.019 226.527C303.119 228.427 299.319 226.927 296.819 221.727C294.619 217.027 292.519 212.127 290.719 207.227C289.919 205.027 288.919 204.227 286.519 204.427C274.619 205.527 262.719 206.427 250.819 207.427C250.519 208.427 250.219 209.327 249.819 210.327C247.519 216.327 245.319 222.227 242.819 228.127C241.319 231.627 238.319 233.027 234.419 232.927C230.919 232.827 227.919 231.327 227.119 228.227C226.419 225.227 226.619 221.627 227.619 218.727C230.119 211.027 233.219 203.527 236.119 195.927C243.819 175.927 251.519 156.027 259.219 135.927C239.919 137.627 220.119 139.327 199.119 141.227C212.619 146.827 216.219 157.027 214.419 169.327C212.519 182.127 202.819 187.927 191.619 191.727C191.819 192.127 191.819 192.427 192.019 192.527C203.719 199.927 210.619 210.927 215.719 223.327C216.419 225.127 216.419 227.627 215.819 229.527C214.519 233.427 210.919 234.927 207.219 235.327C202.919 235.827 199.719 233.327 197.519 229.927C193.219 223.427 189.219 216.727 184.919 210.327C182.619 206.927 180.219 203.527 177.319 200.627C171.519 194.727 164.119 196.927 156.819 196.927C156.819 206.227 156.919 215.127 156.819 224.127C156.819 227.027 156.619 229.927 156.119 232.627C155.119 237.327 150.419 240.527 145.219 240.227C140.719 239.927 138.119 237.127 137.519 231.727C137.319 230.027 137.219 228.327 137.219 226.527C137.219 203.727 137.119 180.927 137.319 158.127C137.319 154.227 138.319 150.327 138.819 146.327C127.719 147.327 116.019 148.327 103.519 149.427C120.419 157.927 121.019 181.427 103.719 190.927C107.619 193.527 112.819 195.627 116.119 199.427C123.219 207.827 122.219 217.527 117.519 226.727C111.919 237.627 101.719 241.327 90.3193 242.727C81.1193 243.827 71.8193 244.927 62.6193 245.327C56.5193 245.627 50.0193 248.227 44.1193 244.027C43.1193 246.927 44.4193 247.727 46.9193 248.327C110.119 264.827 173.419 281.427 236.619 297.927C319.419 319.627 402.319 341.327 485.119 363.127C487.419 363.727 488.619 363.427 489.819 361.427C525.719 304.727 561.719 248.127 597.619 191.427C598.519 189.927 598.819 188.027 599.419 186.327C596.619 188.027 595.319 189.927 593.819 191.827Z" fill="white"/>
</svg>
