<svg width="2694" height="680" viewBox="0 0 2694 680" fill="none" xmlns="http://www.w3.org/2000/svg">
<path fill-rule="evenodd" clip-rule="evenodd" d="M858.996 477.195H906.718V202.809H858.996V477.195Z" fill="white"/>
<path fill-rule="evenodd" clip-rule="evenodd" d="M1193.48 278.336C1166.9 278.336 1142.44 289.414 1127.89 312.536C1117.02 289.994 1095.29 278.336 1067.15 278.336C1043.28 278.336 1021.16 288.831 1007.77 310.397V282.221H956.146V481.198H1007.77V370.633C1007.77 342.847 1026.59 322.057 1050.46 322.057H1053.57C1074.72 322.057 1084.62 335.464 1084.62 361.891V481.198H1136.23V370.633C1136.23 342.847 1154.86 322.057 1178.74 322.057H1181.84C1202.99 322.057 1212.5 335.464 1212.5 361.891V481.198H1264.12V355.867C1264.12 332.356 1258.5 313.505 1247.24 299.322C1235.79 285.332 1217.94 278.336 1193.48 278.336Z" fill="white"/>
<path fill-rule="evenodd" clip-rule="evenodd" d="M1536.79 278.336C1510.2 278.336 1485.75 289.414 1471.2 312.536C1460.33 289.994 1438.59 278.336 1410.46 278.336C1386.59 278.336 1364.46 288.831 1351.07 310.397V282.221H1299.45V481.198H1351.07V370.633C1351.07 342.847 1369.9 322.057 1393.77 322.057H1396.87C1418.02 322.057 1427.92 335.464 1427.92 361.891V481.198H1479.54V370.633C1479.54 342.847 1498.17 322.057 1522.04 322.057H1525.15C1546.3 322.057 1555.81 335.464 1555.81 361.891V481.198H1607.43V355.867C1607.43 332.356 1601.8 313.505 1590.55 299.322C1579.1 285.332 1561.24 278.336 1536.79 278.336Z" fill="white"/>
<path fill-rule="evenodd" clip-rule="evenodd" d="M1927.85 415.519V323.997H1972.29V282.221H1927.85V217.707H1876.23V282.221H1817.61H1767.58H1765.99V392.786C1765.99 420.573 1747.55 443.308 1725.04 443.308H1721.94C1703.11 443.308 1692.44 429.318 1692.44 403.668V282.221H1640.82V409.498C1640.82 432.617 1646.45 450.884 1657.7 464.487C1668.76 478.284 1685.65 485.084 1707.97 485.084C1732.61 485.084 1753.76 472.454 1765.99 452.05V481.196H1817.61V323.997H1876.23V429.512C1876.23 463.128 1894.27 481.196 1927.85 481.196H1978.3V437.478H1949.78C1931.53 437.478 1927.85 433.786 1927.85 415.519Z" fill="white"/>
<path fill-rule="evenodd" clip-rule="evenodd" d="M2112.41 399.975C2112.41 425.043 2091.65 443.307 2068.17 443.307H2065.06C2050.9 443.307 2040.42 435.341 2040.42 423.1C2040.42 415.521 2043.32 409.887 2049.15 405.806C2054.97 401.725 2061.76 399.392 2069.33 398.809L2112.41 394.342V399.975ZM2162.48 349.844C2162.48 303.986 2129.1 278.336 2079.03 278.336C2030.13 278.336 1997.72 306.122 1993.45 343.82H2045.27C2046.43 331.773 2058.66 320.115 2077.29 320.115H2080.59C2099.61 320.115 2112.41 333.908 2112.41 351.786V356.644L2062.35 361.115C2041 362.864 2023.53 369.081 2009.95 379.962C1996.36 390.843 1989.57 406.389 1989.57 426.596C1988.99 461.575 2019.07 485.473 2054.78 485.083C2080.2 485.083 2101.16 474.205 2113.58 456.91C2113.97 467.402 2114.74 475.564 2115.9 481.198H2164.42C2163.06 471.873 2162.48 457.297 2162.48 437.477V349.844Z" fill="white"/>
<path fill-rule="evenodd" clip-rule="evenodd" d="M2298.34 443.308H2295.23C2271.56 443.891 2249.43 418.244 2249.82 381.712C2249.43 345.18 2271.56 319.53 2295.23 320.116H2298.34C2324.34 320.116 2343.75 344.014 2343.75 381.322C2343.75 418.631 2324.15 443.308 2298.34 443.308ZM2307.07 278.337C2280.49 278.337 2258.36 293.493 2249.82 308.066V202.555H2198.2V481.199H2249.82V455.356C2258.36 469.928 2280.49 485.084 2307.07 485.084C2362.77 486.057 2395.95 436.119 2395.37 381.712C2395.95 327.303 2362.77 277.364 2307.07 278.337Z" fill="white"/>
<mask id="mask0_205_360" style="mask-type:luminance" maskUnits="userSpaceOnUse" x="0" y="0" width="2685" height="680">
<path d="M0 680H2684.36V0H0V680Z" fill="white"/>
</mask>
<g mask="url(#mask0_205_360)">
<path fill-rule="evenodd" clip-rule="evenodd" d="M2421.19 481.196H2472.81V202.551H2421.19V481.196Z" fill="white"/>
</g>
<mask id="mask1_205_360" style="mask-type:luminance" maskUnits="userSpaceOnUse" x="0" y="0" width="2685" height="680">
<path d="M0 680H2684.36V0H0V680Z" fill="white"/>
</mask>
<g mask="url(#mask1_205_360)">
<path fill-rule="evenodd" clip-rule="evenodd" d="M2549.29 358.198C2550.45 334.686 2568.5 320.113 2590.24 320.113H2593.34C2615.07 320.113 2633.12 334.686 2634.28 358.198H2549.29ZM2593.73 278.334C2535.51 277.558 2498.64 322.249 2499.22 381.709C2498.25 445.248 2543.85 485.861 2593.73 485.085C2642.44 485.085 2673.88 457.881 2683.58 418.241H2632.35C2628.66 432.814 2616.05 443.309 2597.42 443.309H2594.12C2572.58 443.309 2551.23 424.655 2549.29 398.031H2683.58C2684.16 389.482 2684.35 383.265 2684.35 379.377C2684.94 321.279 2651.75 277.754 2593.73 278.334Z" fill="white"/>
</g>
<mask id="mask2_205_360" style="mask-type:luminance" maskUnits="userSpaceOnUse" x="0" y="0" width="2685" height="680">
<path d="M0 680H2684.36V0H0V680Z" fill="white"/>
</mask>
<g mask="url(#mask2_205_360)">
<path fill-rule="evenodd" clip-rule="evenodd" d="M528.454 366.76C528.363 379.634 521.442 388.658 510.441 394.989C467.77 419.556 425.168 444.24 382.534 468.877C374.746 473.376 366.945 477.857 358.581 482.673C358.452 480.566 358.29 479.147 358.287 477.727C358.268 465.483 358.407 453.236 358.192 440.996C358.132 437.516 359.29 435.656 362.297 433.929C401.069 411.657 439.7 389.13 478.533 366.966C485.444 363.021 488.476 358.195 488.419 350.076C488.118 307.812 488.28 265.542 488.28 223.272V215.879C498.41 222.001 507.888 227.021 516.562 233.174C524.47 238.783 528.454 247.284 528.489 257.063C528.625 293.629 528.711 330.196 528.454 366.76ZM528.182 444.975C527.274 456.288 520.647 464.32 510.869 469.951C473.422 491.511 436.035 513.169 398.623 534.785C386.879 541.573 375.132 548.36 363.379 555.132C361.964 555.946 360.496 556.662 358.575 557.676C358.455 555.724 358.293 554.298 358.29 552.869C358.268 540.457 358.35 528.046 358.22 515.634C358.192 512.83 358.898 511.093 361.48 509.604C416.041 478.171 470.548 446.639 525.071 415.136C525.904 414.654 526.802 414.29 528.353 413.542C528.353 424.56 528.995 434.826 528.182 444.975ZM282.444 218.766C275.89 214.907 270.295 214.945 263.741 218.779C227.029 240.253 190.155 261.455 153.331 282.742C151.771 283.642 150.167 284.472 147.417 285.974C148.392 271.959 145.401 258.742 150.167 245.953C152.774 238.96 157.638 233.687 164.085 229.958C194.807 212.175 225.513 194.358 256.305 176.689C267.545 170.234 278.998 170.39 290.232 176.87C325.192 197.029 360.129 217.223 395.016 237.512C396.506 238.38 398.357 240.294 398.383 241.749C398.636 256.141 398.535 270.539 398.535 285.987C385.848 278.654 374.129 271.889 362.414 265.114C335.739 249.696 308.992 234.4 282.444 218.766ZM318.112 482.876C314.736 480.949 312.29 479.571 309.856 478.164C278.976 460.325 248.127 442.425 217.171 424.715C213.829 422.804 212.582 420.763 212.627 416.866C212.845 396.742 212.766 376.617 212.684 356.496C212.671 353.774 213.105 351.889 215.794 350.387C227.193 344.018 238.444 337.38 249.757 330.855C250.577 330.38 251.463 330.028 252.966 329.312V351.908C252.966 364.152 253.159 376.396 252.89 388.633C252.738 395.614 255.412 400.316 261.498 403.751C278.995 413.631 296.264 423.91 313.78 433.752C317.226 435.688 318.268 437.836 318.201 441.642C317.97 455.026 318.112 468.421 318.112 482.876ZM318.116 557.838C316.071 556.779 314.527 556.051 313.049 555.198C264.46 527.139 215.956 498.929 167.24 471.092C153.575 463.281 147.35 452.162 147.477 436.547C147.746 403.336 147.679 370.118 147.512 336.904C147.433 321.904 153.534 311.051 166.673 303.566C200.877 284.089 234.899 264.294 268.922 244.499C271.862 242.788 274.014 242.509 277.074 244.35C288.824 251.423 300.774 258.169 313.271 265.393C310.894 266.81 309.084 267.912 307.252 268.971C270.422 290.267 233.63 311.628 196.715 332.775C190.661 336.242 187.857 340.732 187.911 347.76C188.101 373.927 188.12 400.097 187.902 426.264C187.841 433.502 190.702 438.071 196.93 441.636C235.883 463.937 274.685 486.514 313.612 508.859C316.907 510.751 318.312 512.709 318.223 516.667C317.935 530.074 318.116 543.493 318.116 557.838ZM324.863 137.378C334.287 132.752 344.239 133.066 353.372 138.275C385.076 156.362 416.69 174.607 448.168 193.078C458.301 199.025 463.472 208.585 463.526 220.3C463.716 261.382 463.637 302.467 463.529 343.549C463.526 345.073 462.542 347.282 461.324 348.007C449.127 355.279 436.782 362.308 423.418 370.02V363.559C423.418 321.302 423.298 279.044 423.522 236.79C423.563 228.675 420.763 223.443 413.573 219.352C376.756 198.407 340.157 177.076 303.489 155.871C301.903 154.955 300.353 153.976 297.957 152.522C307.372 147.17 315.878 141.789 324.863 137.378ZM339.562 0C152.028 0 0 152.224 0 340C0 527.776 152.028 680 339.562 680C527.097 680 679.124 527.776 679.124 340C679.124 152.224 527.097 0 339.562 0Z" fill="white"/>
</g>
</svg>
