<svg width="1162" height="307" viewBox="0 0 1162 307" fill="none" xmlns="http://www.w3.org/2000/svg">
<path d="M261.26 225.137L276.01 192.007C290.08 201.307 310.04 207.667 328.42 207.667C346.8 207.667 354.29 202.448 354.29 194.738C354.29 169.548 263.99 187.928 263.99 128.938C263.99 100.577 287.13 77.4375 334.33 77.4375C354.98 77.4375 376.31 82.1975 391.96 91.2775L378.12 124.627C362.92 116.457 347.94 112.377 334.1 112.377C315.27 112.377 308.46 118.727 308.46 126.667C308.46 150.947 398.54 132.798 398.54 191.327C398.54 219.007 375.4 242.607 328.2 242.607C302.11 242.607 276.24 235.577 261.27 225.137H261.26Z" fill="white"/>
<path d="M542.15 188.828H452.75C456.38 201.308 467.04 208.568 482.93 208.568C494.96 208.568 502.9 205.168 511.29 197.908L533.98 221.508C522.18 234.668 504.94 241.478 481.57 241.478C437.78 241.478 409.42 214.478 409.42 177.718C409.42 140.958 438.24 114.418 477.03 114.418C513.33 114.418 542.83 137.558 542.83 178.178C542.83 181.358 542.38 185.438 542.15 188.838V188.828ZM452.07 166.138H502.44C500.17 153.208 490.64 145.038 477.25 145.038C463.86 145.038 454.56 153.208 452.06 166.138H452.07Z" fill="white"/>
<path d="M687.81 188.828H598.41C602.04 201.308 612.7 208.568 628.59 208.568C640.62 208.568 648.56 205.168 656.95 197.908L679.64 221.508C667.84 234.668 650.6 241.478 627.23 241.478C583.44 241.478 555.08 214.478 555.08 177.718C555.08 140.958 583.9 114.418 622.69 114.418C658.99 114.418 688.49 137.558 688.49 178.178C688.49 181.358 688.04 185.438 687.81 188.838V188.828ZM597.73 166.138H648.1C645.83 153.208 636.3 145.038 622.91 145.038C609.52 145.038 600.22 153.208 597.72 166.138H597.73Z" fill="white"/>
<path d="M839.15 71.0781V239.438H798.08V227.188C789.91 236.948 777.89 241.478 762 241.478C728.42 241.478 701.42 216.978 701.42 177.718C701.42 138.458 728.42 114.418 762 114.418C776.29 114.418 787.87 118.498 796.03 127.128V71.0881H839.14L839.15 71.0781ZM796.72 177.718C796.72 159.108 785.6 148.678 771.08 148.678C756.56 148.678 745.21 159.118 745.21 177.718C745.21 196.318 756.33 207.218 771.08 207.218C785.83 207.218 796.72 196.558 796.72 177.718Z" fill="white"/>
<path d="M865.92 79.6987C865.92 66.7687 875.22 57.4688 888.38 57.4688C901.54 57.4688 910.84 66.7687 910.84 79.6987C910.84 92.6287 901.54 102.159 888.38 102.159C875.22 102.159 865.92 92.8587 865.92 79.6987ZM866.83 116.449H909.94V239.429H866.83V116.449Z" fill="white"/>
<path d="M984.81 120.987H1014.08V153.207H985.95V239.427H942.84V153.207H924.92V120.987H942.84V117.807C942.84 88.3073 961.22 69.0273 994.12 69.0273C1004.56 69.0273 1015.67 71.0673 1022.71 75.3773L1012.05 105.777C1008.42 103.737 1003.65 102.147 999.12 102.147C990.04 102.147 984.83 107.367 984.83 118.257V120.977L984.81 120.987Z" fill="white"/>
<path d="M1161.78 116.449L1108.69 244.419C1095.76 276.189 1077.61 285.489 1053.33 285.489C1040.4 285.489 1025.88 281.179 1017.71 274.369L1032.68 244.189C1037.67 248.729 1044.93 251.449 1051.74 251.449C1060.14 251.449 1064.9 248.269 1068.53 241.009L1015.89 116.449H1060.13L1090.31 191.549L1120.71 116.449H1161.78Z" fill="white"/>
<path d="M199.98 127.688C199.7 126.788 198.21 122.418 195.21 116.538C192.17 110.608 186.91 101.938 179.16 94.3383C178.41 93.5483 170.45 85.3083 159.27 78.0583L159.13 77.9683C159.13 77.9683 159.1 77.9483 159.07 77.9383C155.21 75.5283 151.83 73.7583 149.36 72.5583C148.76 68.6283 147.91 64.5883 146.85 60.5183C146.42 58.0883 141.17 32.4183 113.67 2.37828C113.62 2.31828 113.58 2.27828 113.53 2.21828C113.44 2.11828 113.34 2.01828 113.25 1.90828L113.23 1.88828C112.04 0.708281 110.42 -0.0117188 108.62 -0.0117188C106.82 -0.0117188 105.16 0.718281 103.96 1.90828C103.87 1.99828 103.79 2.07828 103.71 2.16828L31.86 78.5483C31.86 78.5483 18.11 92.0783 8.28 111.958C8.28 111.958 8.28 111.978 8.26 111.998C7.09 114.368 5.97 116.838 4.94 119.378C4.92 119.438 4.88 119.508 4.86 119.578C2.65 125.418 0.16 134.178 0 144.208V144.368C0.02 146.728 0.11 148.848 0.23 150.658C0.23 150.778 0.25 150.898 0.26 151.008C0.3 151.368 0.32 151.708 0.33 152.018C0.59 155.108 0.9 157.048 0.95 157.378C6.36 189.268 24.25 207.308 25.72 208.748C26.01 209.058 26.3 209.368 26.61 209.678L26.56 209.728L29 212.058C29.21 212.268 29.43 212.478 29.65 212.688L29.71 212.728C29.91 212.918 30.09 213.098 30.31 213.278L30.4 213.368C30.59 213.528 30.77 213.708 30.96 213.858C31.54 214.388 32.16 214.938 32.91 215.598C33.8 216.348 34.68 217.078 35.54 217.768C36.37 218.428 37.24 219.108 38.16 219.798L39.47 220.778C40.11 221.238 40.75 221.698 41.37 222.128C41.59 222.278 41.81 222.438 42.02 222.588L43.25 223.428C43.39 223.518 43.52 223.608 43.65 223.708L44.27 224.108C44.54 224.298 44.82 224.488 45.11 224.658C46.08 225.298 47.06 225.908 48.03 226.508L49.12 227.148C50.26 227.828 51.42 228.508 52.71 229.218C53.16 229.458 53.58 229.698 53.97 229.898L54.14 229.988C54.34 230.088 54.52 230.188 54.71 230.298L54.88 230.388C54.94 230.418 55.01 230.458 55.08 230.488L55.42 230.668C55.53 230.728 55.64 230.778 55.76 230.848L56.21 231.068C56.29 231.108 56.37 231.148 56.43 231.188L56.48 231.208L56.51 231.228C57.61 238.258 60.08 248.718 65.65 261.078C67.55 265.288 69.68 269.438 72.03 273.508C76.97 282.458 84.36 292.958 94.54 304.068C94.71 304.268 94.89 304.448 95.07 304.648C95.09 304.668 95.1 304.688 95.13 304.708C96.32 305.868 97.94 306.578 99.73 306.578C101.65 306.578 103.38 305.748 104.58 304.428L132.81 273.738L133.01 273.518L149.49 256.058L149.4 255.978L172.57 232.428C173.22 231.758 188.54 215.928 196.18 201.588C197.09 200.128 204.04 188.518 205.83 168.288C205.9 167.368 207.51 145.518 200.01 127.668L199.98 127.688ZM56.24 52.7283C56.67 52.2383 57.44 51.4283 58.48 50.3883L56.1 52.8983C56.1 52.8983 56.19 52.7983 56.24 52.7383V52.7283ZM64.31 188.688C63.51 191.298 60.37 192.278 58.18 190.648C28.66 168.728 34.8 138.848 37.4 129.718C40.42 119.098 54.82 101.988 54.82 101.988L102.45 51.8283C104.32 49.8583 107.58 50.3383 108.81 52.7583C128.37 91.3383 115.72 114.268 92.03 141.338C74.21 161.678 66.96 180.038 64.31 188.678V188.688ZM168.57 177.558C165.55 188.168 151.15 205.288 151.15 205.288L103.52 255.448C101.65 257.418 98.39 256.938 97.16 254.518C77.6 215.938 90.24 192.998 113.94 165.938C131.76 145.588 139.01 127.238 141.66 118.598C142.46 115.988 145.6 115.008 147.79 116.638C177.31 138.558 171.17 168.438 168.57 177.568V177.558Z" fill="white"/>
</svg>
