<svg width="441" height="132" viewBox="0 0 441 132" fill="none" xmlns="http://www.w3.org/2000/svg">
<path d="M224.3 18.1007H230.9V16.5007L229.2 14.8008H221L219.3 16.5007V29.7008L221 31.3008H229.2L230.9 29.7008V28.1007H224.3V24.8008H230.9V21.5007H224.3V18.1007Z" fill="white"/>
<path d="M229.8 0H220.5V9.30005H229.8V0Z" fill="white"/>
<path d="M211.7 14.7992V21.3992H206.8V14.7992H203.5L201.8 16.4991V29.6992L203.5 31.2992H206.8V24.6992H211.7V31.2992H215L216.6 29.6992V16.3992L215 14.6992H211.7V14.7992Z" fill="white"/>
<path d="M185.9 14.8008L184.2 16.5007V18.1007H189.1V29.6007L190.8 31.2008H192.4L194 29.6007V18.1007H198.9V16.5007L197.3 14.8008H185.9Z" fill="white"/>
<path d="M6.6 36.8984L0 43.4984V69.8984L6.6 76.4984H33V89.6985H19.8V83.0984H0V96.2985L6.6 102.898H46.1L52.7 96.2985V69.8984L46.1 63.2985H19.8V50.0984H33V56.6985H52.8V43.4984L46.2 36.8984H6.6Z" fill="white"/>
<path d="M184.5 36.8984V102.798H230.6L237.2 96.1985V43.4984L230.6 36.8984H184.5ZM204.3 50.0984H217.5V89.5984H204.3V50.0984Z" fill="white"/>
<path d="M243.8 36.9008V102.801H289.9L296.5 96.2008V76.4008L289.9 69.8008L296.5 63.2008V43.4008L289.9 36.8008L243.8 36.9008ZM263.6 76.5007H276.8V89.7008H263.6V76.5007ZM263.6 63.3008V50.1007H276.8V63.3008H263.6Z" fill="white"/>
<path d="M309.7 36.8984L303.1 43.4984V96.1985L309.7 102.798H349.2L355.8 96.1985V43.4984L349.2 36.8984H309.7ZM322.9 50.0984H336.1V89.5984H322.9V50.0984Z" fill="white"/>
<path d="M427.598 57.4066L415.153 69.8516L427.598 82.2966L440.043 69.8516L427.598 57.4066Z" fill="white"/>
<path d="M84.8864 106.465L72.4414 118.91L84.8864 131.355L97.3314 118.91L84.8864 106.465Z" fill="white"/>
<path d="M395.4 36.8984V56.6985L388.8 63.2985L382.2 56.6985V36.8984H369L362.4 43.4984V63.2985L369 69.8984L362.4 76.4984V96.2985L369 102.898H382.2V83.0984L388.8 76.4984L395.4 83.0984V102.898H408.6L415.2 96.2985V76.4984L408.6 69.8984L415.2 63.2985V43.4984L408.6 36.8984H395.4Z" fill="white"/>
<path d="M158.1 36.8984V56.6985L138.3 36.8984H125.1L118.5 43.4984V96.1985L125.1 102.798H138.3V63.2985L158.1 83.0984V102.898H171.3L177.9 96.2985V43.5984L171.3 36.9984H158.1V36.8984Z" fill="white"/>
<path d="M105.4 37.1016H65.8998L59.2998 43.7017V96.4016L65.8998 103.002H79.0998V76.6016H92.2998V103.002H105.5L112.1 96.4016V43.7017L105.4 37.1016ZM85.6998 65.8016L77.2998 57.4016L85.6998 49.0016L94.0998 57.4016L85.6998 65.8016Z" fill="white"/>
</svg>
