<svg width="283" height="282" viewBox="0 0 283 282" fill="none" xmlns="http://www.w3.org/2000/svg">
<g clip-path="url(#clip0_205_439)">
<path d="M193.52 183.111C192.7 181.551 192.19 180.471 191.58 179.461C190.5 177.661 189.28 175.941 188.24 174.121C187.341 172.664 186.841 170.996 186.79 169.285C186.739 167.573 187.139 165.878 187.95 164.371C188.44 163.371 189.02 162.451 189.58 161.501C190.58 159.871 191.58 158.261 192.49 156.601C192.631 156.415 192.733 156.203 192.789 155.976C192.846 155.75 192.855 155.515 192.818 155.285C192.781 155.055 192.697 154.835 192.572 154.638C192.447 154.441 192.283 154.272 192.09 154.141C191.46 154.471 190.84 154.751 190.27 155.141C188.48 156.241 186.75 157.431 184.92 158.471C182.997 159.675 180.772 160.31 178.503 160.301C176.234 160.292 174.014 159.64 172.1 158.421C170.99 157.761 169.91 157.041 168.81 156.341C167.97 155.801 167.14 155.241 166.28 154.731C165.936 154.528 165.566 154.374 165.18 154.271C164.985 154.229 164.781 154.237 164.59 154.294C164.398 154.351 164.223 154.456 164.083 154.599C163.942 154.741 163.84 154.917 163.785 155.11C163.731 155.302 163.726 155.506 163.77 155.701C164.042 156.343 164.377 156.956 164.77 157.531C165.92 159.401 167.11 161.251 168.26 163.121C170.52 166.821 170.03 170.361 167.57 173.761C167.053 174.494 166.492 175.195 165.89 175.861C164.68 177.191 163.47 178.531 162.17 179.771C157.6 184.111 153.03 188.451 148.4 192.711C141.92 198.671 135.207 204.357 128.26 209.771C123.68 213.351 118.92 216.651 114.17 219.971C107.311 224.821 100.051 229.08 92.4704 232.701C91.6604 233.081 90.8504 233.481 90.0804 233.941C89.7904 234.111 89.6104 234.461 89.1704 234.941C89.6438 235.038 90.1281 235.072 90.6104 235.041C92.0504 234.661 93.5104 234.281 94.9204 233.781C102.07 231.208 108.99 228.04 115.61 224.311C121.2 221.171 126.5 217.601 131.76 213.961C139.941 208.378 147.784 202.318 155.25 195.811C160.637 191.044 166.04 186.287 171.46 181.541C172.438 180.687 173.474 179.901 174.56 179.191C175.783 178.298 177.225 177.754 178.733 177.616C180.24 177.479 181.757 177.753 183.12 178.411C185.12 179.351 186.94 180.561 188.84 181.661C189.79 182.201 190.7 182.821 191.69 183.271C192.03 183.441 192.56 183.221 193.52 183.111ZM109.12 119.231C110.588 119.491 112.03 119.879 113.43 120.391C115.307 121.316 117.133 122.341 118.9 123.461C119.59 123.871 120.2 124.401 120.9 124.861C121.227 125.172 121.645 125.371 122.093 125.429C122.541 125.486 122.995 125.399 123.39 125.181C124 124.811 123.93 124.041 123.16 122.771C122.39 121.501 121.57 120.231 120.75 118.971C117.24 113.511 117.32 109.241 122.16 104.441C124.43 102.181 126.61 99.8307 128.93 97.6307C136.55 90.3907 144.45 83.4607 152.55 76.7607C159.805 70.7737 167.386 65.195 175.26 60.0507C181.896 55.7536 188.767 51.8308 195.84 48.3007C196.722 47.8389 197.576 47.3281 198.4 46.7707C198.483 46.6603 198.536 46.5311 198.555 46.3948C198.574 46.2584 198.559 46.1195 198.51 45.9907C198.43 45.8767 198.324 45.7835 198.201 45.7192C198.077 45.6548 197.94 45.621 197.8 45.6207C197.02 45.795 196.252 46.0188 195.5 46.2907C184.071 50.2937 173.168 55.6662 163.03 62.2907C148.921 71.4459 135.548 81.6869 123.03 92.9207C120.49 95.1807 117.9 97.3907 115.37 99.6607C113.786 101.062 111.811 101.945 109.71 102.19C107.61 102.435 105.484 102.03 103.62 101.031C101.93 100.161 100.35 99.0907 98.7104 98.1307C97.9616 97.6431 97.168 97.2279 96.3404 96.8907C96.1061 96.8568 95.8672 96.8732 95.6396 96.9387C95.412 97.0042 95.2009 97.1174 95.0204 97.2707C94.9055 97.4248 94.8298 97.6046 94.8002 97.7946C94.7706 97.9846 94.7878 98.1789 94.8504 98.3607C95.1957 99.081 95.5969 99.7731 96.0504 100.431C97.1104 102.131 98.2104 103.801 99.2404 105.511C100.267 107.132 100.817 109.009 100.827 110.927C100.838 112.846 100.309 114.728 99.3004 116.361C98.5804 117.671 97.7004 118.891 96.9204 120.171C96.2152 121.259 95.5741 122.388 95.0004 123.551C94.9461 123.784 94.942 124.025 94.9886 124.26C95.0352 124.494 95.1313 124.716 95.2704 124.911C95.4464 125.161 95.7117 125.333 96.0114 125.393C96.3112 125.452 96.6223 125.394 96.8804 125.231C97.4815 124.88 98.0445 124.468 98.5604 124.001C100.478 122.379 102.673 121.118 105.04 120.281C106.3 119.861 107.68 119.601 109.12 119.231ZM237.94 193.361C238.254 192.8 238.424 192.171 238.435 191.528C238.445 190.886 238.296 190.251 238 189.681C236.44 185.571 235 181.391 233.14 177.431C227.53 165.813 220.762 154.791 212.94 144.531C205.84 135.091 198.03 126.251 190.18 117.431C187.99 114.971 185.88 112.431 183.91 109.781C180.97 105.831 180.73 101.701 183.57 97.5307C183.91 97.0407 184.2 96.5307 184.52 96.0107L187.47 91.4807C187.76 91.0407 187.96 90.4807 187.52 90.1307C187.144 89.8246 186.663 89.6774 186.18 89.7207C185.503 89.8814 184.859 90.1625 184.28 90.5507C183.18 91.2407 182.12 91.9807 181.06 92.7407C175.93 96.4507 170.73 96.6007 165.45 93.0807C164.2 92.2507 162.98 91.3807 161.7 90.6007C161.024 90.1735 160.295 89.8373 159.53 89.6007C159.34 89.5651 159.143 89.5824 158.962 89.6508C158.78 89.7193 158.621 89.8361 158.501 89.9888C158.382 90.1414 158.306 90.3239 158.283 90.5164C158.26 90.7089 158.29 90.9041 158.37 91.0807C158.694 91.6985 159.055 92.2963 159.45 92.8707C160.59 94.7507 161.8 96.5907 162.82 98.5407C163.688 100.074 164.166 101.797 164.211 103.558C164.256 105.319 163.868 107.065 163.08 108.641C162.3 110.251 161.37 111.801 160.48 113.361C159.93 114.311 159.27 115.191 158.73 116.151C158.508 116.591 158.369 117.069 158.32 117.561C158.304 117.711 158.328 117.862 158.389 118C158.449 118.138 158.545 118.257 158.667 118.346C158.788 118.436 158.931 118.491 159.081 118.508C159.231 118.524 159.382 118.501 159.52 118.441C160.32 118.051 161.1 117.591 161.87 117.131C163.59 116.131 165.25 114.981 167.02 114.071C168.678 113.103 170.602 112.691 172.511 112.894C174.42 113.097 176.214 113.905 177.63 115.201C179 116.361 180.31 117.601 181.63 118.851C191.15 128.021 199.75 138.031 208.26 148.131C213.576 154.381 218.527 160.932 223.09 167.751C228.106 175.345 232.651 183.24 236.7 191.391C237.08 192.068 237.494 192.725 237.94 193.361ZM130.03 161.471C129.887 161.271 129.702 161.103 129.49 160.978C129.278 160.854 129.041 160.775 128.797 160.746C128.552 160.718 128.304 160.741 128.069 160.814C127.834 160.887 127.616 161.009 127.43 161.171C126.09 162.041 124.8 163.001 123.43 163.841C117.36 167.601 112.99 167.321 107.52 162.841C105.9 161.501 104.36 160.071 102.84 158.621C88.5266 145.048 75.5565 130.126 64.1104 114.061C60.7504 109.341 57.6504 104.421 54.6304 99.4707C52.5004 95.9707 50.7104 92.2707 48.7504 88.6707C48.4404 88.1007 48.3204 87.3207 47.2704 87.2407C47.1604 87.5907 46.9004 87.9607 46.9504 88.2407C47.0848 89.2283 47.3297 90.1977 47.6805 91.1307C49.4205 95.2807 51.0404 99.4907 53.0504 103.511C59.7804 117.001 68.3805 129.291 77.8204 140.991C84.9304 149.801 92.5104 158.181 100.44 166.251C101.779 167.6 102.991 169.07 104.06 170.641C105.087 172.074 105.72 173.752 105.896 175.507C106.071 177.262 105.783 179.032 105.06 180.641C104.46 182.02 103.765 183.357 102.98 184.641C102.37 185.641 101.6 186.641 100.98 187.641C100.758 187.915 100.642 188.261 100.655 188.614C100.668 188.967 100.808 189.303 101.05 189.561C101.318 189.79 101.652 189.927 102.004 189.95C102.355 189.974 102.705 189.883 103 189.691C103.515 189.385 104.013 189.051 104.49 188.691C105.63 187.881 106.74 187.031 107.9 186.241C109.901 184.882 112.253 184.135 114.67 184.091C117.39 184.023 120.065 184.795 122.33 186.301C123.76 187.221 125.13 188.231 126.58 189.111C127.18 189.45 127.838 189.674 128.52 189.771C128.696 189.787 128.873 189.757 129.033 189.684C129.193 189.61 129.331 189.495 129.433 189.351C129.534 189.207 129.596 189.038 129.611 188.863C129.627 188.687 129.595 188.51 129.52 188.351C129.105 187.558 128.644 186.79 128.14 186.051C127.01 184.281 125.76 182.581 124.73 180.761C123.953 179.403 123.502 177.883 123.413 176.321C123.325 174.759 123.601 173.198 124.22 171.761C125.092 169.637 126.209 167.623 127.55 165.761C128.621 164.486 129.46 163.034 130.03 161.471ZM68.7304 159.271C68.5004 159.131 68.3904 159.021 68.3404 159.041C67.9867 159.15 67.65 159.308 67.3404 159.511C64.1986 162.166 61.3853 165.188 58.9604 168.511C53.1005 176.126 48.0719 184.346 43.9604 193.031C40.97 198.932 38.9635 205.282 38.0204 211.831C37.0804 219.241 37.6404 226.411 41.2204 233.141C41.6504 233.931 41.9904 234.771 42.4104 235.561C43.0845 236.74 43.4734 238.06 43.5464 239.416C43.6193 240.772 43.3741 242.126 42.8304 243.371C42.3876 244.481 41.8766 245.563 41.3004 246.611C40.5504 247.911 39.6604 249.131 38.8604 250.401C38.4479 250.968 38.1117 251.586 37.8604 252.241C37.7938 252.463 37.78 252.699 37.8199 252.928C37.8598 253.157 37.9524 253.374 38.0904 253.561C38.2896 253.69 38.5149 253.773 38.7502 253.804C38.9854 253.835 39.2246 253.813 39.4504 253.741C40.0773 253.464 40.6766 253.13 41.2404 252.741C43.2404 251.561 45.1304 250.271 47.1704 249.231C48.7578 248.35 50.5504 247.907 52.3652 247.945C54.1799 247.984 55.952 248.504 57.5004 249.451C59.4004 250.561 61.2304 251.781 63.1004 252.931C63.6693 253.334 64.2835 253.67 64.9305 253.931C65.1166 253.979 65.3117 253.983 65.4995 253.941C65.6873 253.9 65.8625 253.814 66.0105 253.691C66.1641 253.513 66.2768 253.303 66.3407 253.077C66.4046 252.85 66.4182 252.613 66.3804 252.381C65.8893 251.29 65.3073 250.243 64.6404 249.251C63.2219 247.315 62.0652 245.2 61.2004 242.961C60.5116 240.962 60.4592 238.8 61.0504 236.771C61.5787 234.939 62.4212 233.214 63.5405 231.671C64.4605 230.371 65.3905 229.061 66.2605 227.721C66.7805 226.901 66.7405 226.221 66.2605 225.811C65.5905 225.251 64.9404 225.551 64.3204 225.891C63.7004 226.231 63.3204 226.561 62.8004 226.891C61.3504 227.771 59.9104 228.681 58.4204 229.491C57.5471 229.975 56.621 230.358 55.6604 230.631C54.2152 231.085 52.6605 231.051 51.2363 230.535C49.8122 230.018 48.5977 229.046 47.7804 227.771C46.988 226.616 46.3744 225.348 45.9604 224.011C44.5676 219.717 44.1508 215.166 44.7404 210.691C46.0804 201.461 49.3705 192.901 53.5105 184.641C57.3223 176.81 61.8552 169.351 67.0504 162.361C67.5304 161.694 67.9805 161.027 68.4005 160.361C68.5495 160.01 68.6601 159.645 68.7304 159.271ZM127.25 63.8207C126.916 63.2421 126.527 62.6964 126.09 62.1907C123.18 59.6007 120.38 56.8507 117.27 54.5207C108.231 47.7139 98.2895 42.1977 87.7304 38.1307C83.4565 36.428 78.973 35.3079 74.4005 34.8007C67.4005 34.1207 60.6204 34.8007 54.3004 38.2007C53.2404 38.7607 52.1405 39.2007 51.0405 39.7207C49.3959 40.4781 47.5955 40.8358 45.7863 40.7645C43.977 40.6933 42.2104 40.1951 40.6304 39.3107C39.1404 38.5107 37.7504 37.5107 36.3104 36.6207C35.5504 36.1507 34.7904 35.6207 33.9904 35.2607C33.7257 35.1106 33.4182 35.0537 33.1173 35.099C32.8163 35.1443 32.5393 35.2893 32.3304 35.5107C32.1245 35.7341 32.0102 36.0268 32.0102 36.3307C32.0102 36.6345 32.1245 36.9272 32.3304 37.1507C32.7204 37.7307 33.2004 38.2507 33.5904 38.8307C34.5904 40.3207 35.6804 41.7707 36.5304 43.3507C37.7002 45.3512 38.2805 47.6416 38.2044 49.9577C38.1283 52.2739 37.3989 54.5213 36.1004 56.4407C35.3104 57.7207 34.3704 58.8907 33.5504 60.1507C33.0469 60.8913 32.615 61.6782 32.2605 62.5007C32.2404 62.6838 32.2624 62.869 32.3248 63.0423C32.3872 63.2156 32.4883 63.3724 32.6204 63.5007C32.7602 63.6281 32.9286 63.72 33.1113 63.7688C33.294 63.8175 33.4858 63.8216 33.6704 63.7807C34.7425 63.2503 35.7872 62.6662 36.8004 62.0307C38.1704 61.2107 39.4904 60.2907 40.8904 59.5207C43.4562 58.0926 46.4815 57.7333 49.3104 58.5207C51.446 59.0924 53.473 60.0113 55.3104 61.2407C56.3104 61.9007 57.3104 62.6307 58.3104 63.2407C58.805 63.5743 59.3529 63.8212 59.9305 63.9707C60.1133 63.9872 60.2975 63.9635 60.4703 63.9013C60.643 63.8391 60.8001 63.7399 60.9305 63.6107C61.0368 63.4543 61.1056 63.2755 61.1317 63.0882C61.1577 62.9009 61.1401 62.7101 61.0804 62.5307C60.5104 61.4807 59.8104 60.5307 59.2004 59.4707C58.2004 57.7507 57.0904 56.0607 56.2504 54.2607C55.6902 53.0758 55.4551 51.7633 55.5694 50.4577C55.6836 49.152 56.143 47.9002 56.9005 46.8307C57.6508 45.7612 58.6494 44.8896 59.8104 44.2907C63.2339 42.4318 67.0465 41.4041 70.9404 41.2907C75.2464 41.1131 79.5525 41.6366 83.6904 42.8407C97.5194 46.5866 110.554 52.8108 122.16 61.2107C123.37 62.0907 124.58 62.9807 125.84 63.8007C126.12 63.9607 126.57 63.8207 127.25 63.8207ZM219.31 123.561L219.63 124.111C219.98 124.051 220.41 124.111 220.63 123.901C221.253 123.401 221.835 122.853 222.37 122.261C226.769 117.464 230.814 112.354 234.47 106.971C239.336 99.8695 243.363 92.2286 246.47 84.2007C248.824 78.226 250.035 71.8624 250.04 65.4407C250.138 60.8189 249.223 56.2317 247.36 52.0007C246.74 50.6307 245.99 49.3307 245.31 48.0007C244.439 46.4708 243.997 44.7336 244.032 42.9731C244.067 41.2126 244.578 39.4945 245.51 38.0007C246.39 36.5407 247.25 35.0807 248.12 33.6107C248.52 32.9307 248.95 32.2507 249.32 31.5407C249.78 30.6407 249.73 30.0407 249.22 29.6307C248.71 29.2207 248.09 29.4107 247.57 29.7307C246.22 30.5807 244.89 31.4807 243.52 32.3007C242.33 33.0376 241.098 33.7054 239.83 34.3007C238.419 34.9673 236.874 35.3005 235.313 35.2745C233.752 35.2485 232.219 34.8639 230.83 34.1507C229.67 33.5807 228.54 32.9207 227.43 32.2507C226.32 31.5807 225.43 30.9007 224.43 30.2507C223.929 29.9258 223.4 29.6447 222.85 29.4107C222.623 29.2973 222.362 29.2745 222.118 29.3469C221.875 29.4194 221.669 29.5816 221.54 29.8007C221.346 30.1361 221.288 30.5339 221.38 30.9107C221.63 31.4529 221.928 31.9716 222.27 32.4607C223.35 34.2607 224.45 36.0507 225.52 37.8607C227.59 41.3807 227.36 44.9407 225.63 48.4807C225.06 49.6407 224.32 50.7307 223.63 51.8307C222.94 52.9307 222.29 53.8307 221.69 54.8307C221.379 55.3435 221.165 55.9098 221.06 56.5007C221.056 56.6867 221.09 56.8717 221.16 57.0439C221.231 57.216 221.336 57.3716 221.47 57.5007C221.618 57.6214 221.791 57.706 221.977 57.7477C222.163 57.7893 222.356 57.787 222.54 57.7407C223.25 57.4007 223.86 56.8607 224.54 56.4607C226.557 55.1758 228.647 54.0104 230.8 52.9707C232.318 52.259 234.039 52.1065 235.658 52.5402C237.277 52.9738 238.691 53.9657 239.65 55.3407C240.443 56.3661 241.115 57.4803 241.65 58.6607C242.867 61.3084 243.498 64.1871 243.5 67.1007C243.512 71.9083 242.839 76.693 241.5 81.3107C239.026 89.6857 235.575 97.7409 231.22 105.311C228.401 110.268 225.289 115.054 221.9 119.641C221.07 120.911 220.2 122.241 219.31 123.561ZM161.24 219.291L160.94 219.751C161.112 220.105 161.319 220.44 161.56 220.751C162.33 221.541 163.09 222.331 163.93 223.051C170.114 228.135 176.714 232.691 183.66 236.671C189.909 240.464 196.595 243.486 203.57 245.671C208.46 247.162 213.561 247.838 218.67 247.671C224.05 247.511 229.2 246.521 233.79 243.471C234.465 243.037 235.17 242.652 235.9 242.321C237.233 241.612 238.716 241.234 240.226 241.22C241.735 241.206 243.225 241.556 244.57 242.241C246.17 243.031 247.68 244.031 249.21 244.961C250.15 245.531 251.04 246.181 252 246.721C252.24 246.911 252.545 247.001 252.85 246.969C253.155 246.937 253.435 246.787 253.63 246.551C253.747 246.342 253.817 246.11 253.834 245.872C253.851 245.633 253.816 245.394 253.73 245.171C253.13 244.021 252.37 242.951 251.73 241.841C250.8 240.311 249.8 238.841 249 237.201C248.137 235.375 247.898 233.316 248.32 231.341C248.608 229.36 249.288 227.456 250.32 225.741C251.19 224.401 252.1 223.091 252.97 221.741C253.473 220.998 253.921 220.219 254.31 219.411C254.366 219.23 254.376 219.039 254.339 218.854C254.302 218.669 254.22 218.496 254.1 218.351C253.76 218.081 253.1 217.821 252.8 217.971C251.74 218.501 250.8 219.211 249.75 219.841C248.14 220.841 246.6 221.971 244.91 222.841C243.22 223.749 241.33 224.225 239.41 224.225C237.491 224.225 235.601 223.749 233.91 222.841C232.14 221.931 230.5 220.771 228.8 219.721C227.95 219.191 227.14 218.601 226.26 218.161C226.076 218.115 225.884 218.113 225.699 218.152C225.514 218.192 225.34 218.274 225.19 218.391C225.055 218.528 224.95 218.693 224.883 218.874C224.816 219.055 224.788 219.248 224.8 219.441C224.892 219.931 225.09 220.395 225.38 220.801C225.98 221.721 226.71 222.571 227.25 223.521C228.314 225.207 229.234 226.98 230 228.821C230.669 230.467 230.721 232.299 230.146 233.981C229.571 235.662 228.408 237.079 226.87 237.971C224.886 239.333 222.648 240.285 220.29 240.771C216.745 241.435 213.115 241.526 209.54 241.041C203.789 240.208 198.179 238.586 192.87 236.221C182.617 231.947 172.787 226.721 163.51 220.611C162.78 220.061 161.99 219.751 161.24 219.291ZM150.01 252.831C149.992 253.373 150.05 253.914 150.18 254.441C150.59 255.351 151.18 256.191 151.61 257.071C152.652 258.892 153.593 260.768 154.43 262.691C155.88 266.441 154.76 269.301 151.3 271.361C150.95 271.561 150.6 271.741 150.24 271.921C147.631 273.2 144.874 274.15 142.03 274.751C132.596 276.746 122.83 276.555 113.48 274.191C105.66 272.191 98.2904 269.191 91.8804 264.131C91.5808 263.869 91.2438 263.653 90.8804 263.491C90.3941 263.386 89.8978 263.336 89.4005 263.341C89.825 263.942 90.2824 264.52 90.7704 265.071C93.8944 268.164 97.3953 270.852 101.19 273.071C108.669 277.371 116.918 280.164 125.47 281.291C136.021 282.824 146.788 281.566 156.7 277.641C157.9 277.151 159.11 276.641 160.35 276.261C162.818 275.345 165.533 275.345 168 276.261C169.29 276.8 170.537 277.435 171.73 278.161C172.93 278.871 174.04 279.741 175.23 280.481C175.823 280.848 176.458 281.143 177.12 281.361C177.316 281.404 177.519 281.398 177.711 281.342C177.904 281.286 178.079 281.182 178.22 281.041C178.362 280.899 178.465 280.724 178.521 280.532C178.577 280.339 178.584 280.136 178.54 279.941C178.302 279.181 177.966 278.455 177.54 277.781C176.62 276.341 175.54 274.991 174.68 273.551C171.93 269.221 171.93 264.891 174.8 260.611C176.03 258.791 177.32 257.001 178.55 255.181C178.99 254.541 179.55 253.911 179.26 253.011C179.018 252.751 178.691 252.585 178.339 252.542C177.986 252.498 177.629 252.579 177.33 252.771C176.33 253.271 175.45 253.901 174.5 254.451C172.6 255.561 170.74 256.751 168.77 257.711C167.373 258.413 165.829 258.775 164.264 258.766C162.7 258.758 161.16 258.379 159.77 257.661C157.591 256.652 155.514 255.432 153.57 254.021C152.65 253.361 151.72 252.531 150.01 252.831ZM263.82 192.221C264.301 191.967 264.751 191.658 265.16 191.301C266.51 189.821 267.88 188.351 269.1 186.781C272.392 182.739 275.025 178.204 276.9 173.341C282.53 157.691 283.18 141.881 278.09 125.951C277.58 124.331 277.15 122.681 276.72 121.041C275.955 117.994 276.395 114.77 277.95 112.041C278.84 110.371 279.95 108.791 280.88 107.161C281.35 106.391 281.82 105.631 282.23 104.831C282.34 104.603 282.36 104.343 282.286 104.102C282.211 103.861 282.049 103.657 281.83 103.531C281.668 103.434 281.487 103.372 281.3 103.348C281.112 103.323 280.922 103.338 280.74 103.391C279.957 103.828 279.205 104.319 278.49 104.861C276.487 106.356 274.32 107.618 272.03 108.621C270.698 109.202 269.259 109.502 267.805 109.502C266.352 109.502 264.913 109.202 263.58 108.621C261.534 107.808 259.599 106.739 257.82 105.441C257.11 104.901 256.36 104.391 255.6 103.921C255.359 103.738 255.061 103.647 254.759 103.664C254.457 103.68 254.171 103.803 253.95 104.011C253.72 104.21 253.575 104.491 253.545 104.794C253.516 105.097 253.603 105.4 253.79 105.641C254.1 106.151 254.47 106.641 254.79 107.141C255.96 109.141 257.24 111.031 258.26 113.081C258.993 114.515 259.381 116.101 259.395 117.711C259.409 119.322 259.048 120.914 258.34 122.361C257.595 123.885 256.76 125.365 255.84 126.791C255.17 127.901 254.39 128.941 253.72 130.051C253.488 130.322 253.37 130.672 253.391 131.028C253.411 131.384 253.569 131.718 253.83 131.961C254.089 132.205 254.43 132.341 254.785 132.341C255.141 132.341 255.482 132.205 255.74 131.961C256.68 131.381 257.54 130.701 258.48 130.131C259.884 129.184 261.347 128.329 262.86 127.571C264.04 126.986 265.382 126.812 266.671 127.077C267.961 127.341 269.126 128.029 269.98 129.031C270.695 129.729 271.289 130.54 271.74 131.431C272.641 133.214 273.381 135.075 273.95 136.991C275.393 142.411 276.03 148.015 275.84 153.621C275.653 158.219 275.108 162.797 274.21 167.311C272.841 174.815 269.836 181.927 265.41 188.141C264.819 188.947 264.271 189.785 263.77 190.651C263.58 190.871 263.48 191.155 263.489 191.445C263.499 191.736 263.617 192.013 263.82 192.221ZM18.5304 87.6207C18.0121 87.8639 17.5196 88.1587 17.0604 88.5007C15.8359 89.6783 14.6711 90.9165 13.5705 92.2107C8.81043 98.1693 5.26057 105.001 3.12044 112.321C-0.223221 123.291 -0.694936 134.936 1.75044 146.141C2.55829 149.444 3.61121 152.683 4.90045 155.831C5.56243 157.457 5.87597 159.204 5.82085 160.96C5.76573 162.715 5.34317 164.439 4.58045 166.021C3.82045 167.641 2.84044 169.171 1.95044 170.731C1.40044 171.681 0.770444 172.591 0.250444 173.561C0.0485283 173.853 -0.0431981 174.207 -0.00840632 174.561C0.0263855 174.914 0.185441 175.244 0.440446 175.491C1.05045 175.931 1.57045 175.541 2.08045 175.231C4.21045 173.931 6.32044 172.591 8.48044 171.321C10.3067 170.15 12.4397 169.549 14.6085 169.593C16.7772 169.638 18.8838 170.326 20.6604 171.571C21.9304 172.371 23.1505 173.241 24.4005 174.071C25.1254 174.6 25.8911 175.072 26.6904 175.481C26.9156 175.553 27.1533 175.579 27.3888 175.557C27.6244 175.535 27.8529 175.464 28.0604 175.351C28.1925 175.275 28.3082 175.174 28.4006 175.053C28.493 174.932 28.5603 174.794 28.5985 174.647C28.6367 174.5 28.6451 174.346 28.6231 174.196C28.6011 174.045 28.5492 173.901 28.4704 173.771C28.0804 172.961 27.6704 172.161 27.2204 171.381C26.4004 170.011 25.5404 168.651 24.7004 167.301C22.0904 163.101 22.3804 158.941 24.8704 154.831C25.7504 153.381 26.7405 151.991 27.6505 150.561C28.0904 149.895 28.4718 149.192 28.7905 148.461C28.8562 148.283 28.8787 148.093 28.8561 147.905C28.8335 147.717 28.7664 147.537 28.6604 147.381C28.4698 147.25 28.2536 147.161 28.0261 147.12C27.7986 147.078 27.5649 147.085 27.3404 147.141C26.3404 147.621 25.4804 148.301 24.5204 148.851C22.8233 149.898 21.0744 150.859 19.2804 151.731C18.0429 152.316 16.6463 152.474 15.3091 152.181C13.972 151.888 12.7697 151.16 11.8904 150.111C11.0376 149.265 10.3343 148.281 9.81044 147.201C8.9642 145.396 8.29442 143.514 7.81044 141.581C5.75334 132.47 5.6375 123.029 7.47045 113.871C8.93537 105.575 12.1649 97.6904 16.9404 90.7507C17.7518 89.876 18.3026 88.7918 18.5304 87.6207ZM195.53 17.6907C195.311 17.1797 195.033 16.6963 194.7 16.2507C193.592 15.1031 192.42 14.0181 191.19 13.0007C185.685 8.65182 179.428 5.35045 172.73 3.26068C165.059 0.951977 157.056 -0.0619136 149.05 0.260682C141.843 0.41381 134.725 1.88822 128.05 4.61067C127.31 4.92067 126.57 5.2207 125.81 5.4807C123.549 6.35624 121.035 6.30593 118.81 5.34068C117.098 4.52455 115.429 3.62001 113.81 2.63069C112.69 1.98069 111.67 1.16068 110.55 0.510682C109.87 0.110682 109.1 -0.259319 108.33 0.400681C107.8 0.850681 107.84 1.40069 108.54 2.53069C109.24 3.66069 109.97 4.70068 110.65 5.80068C111.33 6.90068 111.92 7.8007 112.45 8.9207C113.42 10.7412 113.879 12.7906 113.777 14.8508C113.674 16.9111 113.016 18.905 111.87 20.6207C110.87 22.2407 109.87 23.8407 108.87 25.4707C108.496 26.0568 108.19 26.6843 107.96 27.3407C107.85 27.6707 107.91 28.2707 108.13 28.4207C108.317 28.5601 108.532 28.6573 108.76 28.7056C108.988 28.754 109.223 28.7523 109.45 28.7007C110.25 28.2971 111.025 27.8463 111.77 27.3507C113.85 26.1607 115.88 24.8707 118.03 23.8307C119.381 23.1547 120.876 22.8195 122.385 22.8543C123.895 22.8892 125.373 23.2931 126.69 24.0307C128.81 25.1507 130.81 26.4807 132.85 27.7307C133.53 28.1407 134.15 28.6607 134.85 29.0107C135.031 29.0639 135.222 29.0744 135.408 29.0414C135.593 29.0084 135.769 28.9329 135.92 28.8207C136.055 28.6839 136.158 28.5185 136.22 28.3367C136.282 28.155 136.303 27.9615 136.28 27.7707C136.015 27.0178 135.681 26.2913 135.28 25.6007C134.28 23.7707 133.18 21.9707 132.18 20.1207C131.445 18.9189 131.077 17.5287 131.12 16.1207C131.181 15.1182 131.465 14.142 131.951 13.2632C132.438 12.3843 133.114 11.6251 133.93 11.0407C136.124 9.45767 138.603 8.31337 141.23 7.6707C147.53 6.02721 154.053 5.40594 160.55 5.83067C172.217 6.22807 183.498 10.1079 192.94 16.9707C193.318 17.2935 193.739 17.5627 194.19 17.7707C194.629 17.8178 195.071 17.7908 195.5 17.6907H195.53Z" fill="white"/>
</g>
<defs>
<clipPath id="clip0_205_439">
<rect width="282.34" height="281.91" fill="white"/>
</clipPath>
</defs>
</svg>
