<svg width="640" height="840" viewBox="0 0 640 840" fill="none" xmlns="http://www.w3.org/2000/svg">
  <rect width="640" height="840" rx="40" fill="#1A1A1A"/>
  <rect x="26" y="26" width="588" height="788" rx="32" fill="url(#paint0_linear_201_2)" stroke="#FFFFFF" stroke-opacity="0.06"/>
  <circle cx="320" cy="220" r="180" fill="url(#paint1_radial_201_2)" fill-opacity="0.55"/>
  <circle cx="320" cy="255" r="125" fill="#C5A059" fill-opacity="0.13"/>
  <path d="M226 324C226 270.98 268.98 228 322 228C375.02 228 418 270.98 418 324V358H226V324Z" fill="#F3F4F6" fill-opacity="0.95"/>
  <path d="M168 640C168 537.828 250.828 455 353 455H287C389.172 455 472 537.828 472 640V688H168V640Z" fill="#000000"/>
  <path d="M210 676H432V814H210V676Z" fill="#0D0D0D"/>
  <rect x="88" y="598" width="464" height="4" rx="2" fill="#C5A059" fill-opacity="0.35"/>
  <rect x="120" y="720" width="180" height="16" rx="8" fill="#C5A059" fill-opacity="0.24"/>
  <rect x="120" y="748" width="280" height="14" rx="7" fill="#A0AEC0" fill-opacity="0.28"/>
  <rect x="120" y="776" width="220" height="14" rx="7" fill="#A0AEC0" fill-opacity="0.18"/>
  <defs>
    <linearGradient id="paint0_linear_201_2" x1="320" y1="26" x2="320" y2="814" gradientUnits="userSpaceOnUse">
      <stop stop-color="#1A1A1A"/>
      <stop offset="1" stop-color="#000000"/>
    </linearGradient>
    <radialGradient id="paint1_radial_201_2" cx="0" cy="0" r="1" gradientUnits="userSpaceOnUse" gradientTransform="translate(320 220) rotate(90) scale(180)">
      <stop stop-color="#C5A059"/>
      <stop offset="1" stop-color="#C5A059" stop-opacity="0"/>
    </radialGradient>
  </defs>
</svg>
